<svg width="28" height="28" viewBox="0 0 28 28" fill="none" xmlns="http://www.w3.org/2000/svg">
<path d="M25.137 9.26273C24.8089 8.93465 24.3638 8.75035 23.8998 8.75035C23.4358 8.75035 22.9907 8.93465 22.6625 9.26273L14 17.9252L5.33754 9.26273C5.00748 8.94395 4.56543 8.76756 4.10659 8.77155C3.64774 8.77553 3.20882 8.95958 2.88435 9.28404C2.55989 9.60851 2.37585 10.0474 2.37186 10.5063C2.36787 10.9651 2.54426 11.4072 2.86304 11.7372L12.7628 21.637C13.091 21.9651 13.536 22.1494 14 22.1494C14.4641 22.1494 14.9091 21.9651 15.2373 21.637L25.137 11.7372C25.4651 11.4091 25.6494 10.964 25.6494 10.5C25.6494 10.0359 25.4651 9.5909 25.137 9.26273Z" fill="black"/>
</svg>
