<svg width="22" height="24" viewBox="0 0 22 24" fill="none" xmlns="http://www.w3.org/2000/svg">
<path d="M3.86002 19.754C3.48255 19.5094 3.15792 19.1964 2.77793 18.7562C2.58071 18.5217 2.38526 18.2857 2.1916 18.0483C1.60903 17.3453 1.24163 17.02 0.862899 16.8868C0.703544 16.8355 0.556353 16.7538 0.429993 16.6464C0.303632 16.539 0.200658 16.4082 0.127132 16.2616C0.0536063 16.1149 0.0110162 15.9555 0.00186952 15.7926C-0.00727716 15.6297 0.0172044 15.4667 0.0738729 15.3132C0.130541 15.1597 0.218251 15.0187 0.331837 14.8986C0.445423 14.7785 0.582589 14.6817 0.735258 14.6139C0.887927 14.5461 1.05301 14.5087 1.22079 14.5038C1.38857 14.499 1.55566 14.5268 1.71221 14.5857C2.6584 14.9158 3.29884 15.4843 4.16199 16.5273C4.04372 16.3842 4.58979 17.0494 4.70681 17.1863C4.94587 17.4639 5.12203 17.6326 5.26043 17.7218C5.51711 17.8894 6.00028 17.9615 6.7074 17.893C6.7376 17.426 6.82568 16.9723 6.96157 16.553C3.22712 15.6665 1.11329 13.3251 1.11329 8.73264C1.11329 7.21895 1.57883 5.85321 2.4445 4.70877C2.17021 3.61569 2.21173 2.29396 2.82449 0.805949C2.89387 0.637401 3.00101 0.485981 3.13812 0.362683C3.27523 0.239385 3.43888 0.147303 3.61718 0.0931214C3.71909 0.0637768 3.77697 0.05155 3.87889 0.0356551C4.88925 -0.114736 6.31609 0.243512 8.17576 1.37694C9.28401 1.12517 10.4185 0.998803 11.5566 1.00036C12.7042 1.00036 13.8454 1.12629 14.9337 1.37694C16.7922 0.236176 18.2228 -0.123294 19.2394 0.0356551C19.3464 0.0527727 19.4382 0.074781 19.5137 0.0980121C19.6884 0.153983 19.8483 0.246488 19.9822 0.369012C20.1162 0.491537 20.2208 0.641101 20.2888 0.807172C20.9016 2.29274 20.9431 3.61447 20.6688 4.70755C21.5382 5.85199 22 7.20795 22 8.73264C22 13.3275 19.8937 15.6604 16.1593 16.5493C16.3166 17.0567 16.3983 17.6228 16.3983 18.2366C16.3983 19.0485 16.3958 19.8249 16.3895 20.6942C16.3895 20.9265 16.387 21.1759 16.3832 21.5574C16.6652 21.6177 16.9172 21.7704 17.097 21.9899C17.2768 22.2094 17.3735 22.4822 17.3708 22.7628C17.3682 23.0433 17.2664 23.3144 17.0824 23.5306C16.8985 23.7468 16.6436 23.8949 16.3606 23.9502C14.9262 24.229 13.8642 23.2998 13.8642 22.0868L13.8668 21.5403L13.8731 20.6783C13.8793 19.8139 13.8831 19.0424 13.8831 18.2366C13.8831 17.3844 13.6516 16.8281 13.3471 16.5725C12.5154 15.8756 12.9369 14.5502 14.0278 14.4316C17.7597 14.0232 19.4835 12.6183 19.4835 8.73386C19.4835 7.5662 19.091 6.60027 18.3348 5.7933C18.1759 5.62363 18.0693 5.41395 18.0273 5.18823C17.9852 4.9625 18.0094 4.72983 18.097 4.51681C18.3058 4.00939 18.3939 3.3467 18.2165 2.54339L18.2039 2.54584C17.5861 2.71701 16.8073 3.08382 15.8661 3.70739C15.7143 3.80747 15.5419 3.87411 15.3608 3.90262C15.1798 3.93113 14.9945 3.92084 14.818 3.87245C13.756 3.58628 12.6587 3.44231 11.5566 3.44451C10.4368 3.44451 9.32705 3.59123 8.2953 3.87245C8.1197 3.92044 7.93546 3.93075 7.75535 3.90267C7.57523 3.87459 7.40356 3.8088 7.25222 3.70984C6.30477 3.08993 5.5234 2.72313 4.89932 2.55195C4.71939 3.35036 4.80873 4.01184 5.01633 4.51681C5.10391 4.72983 5.12805 4.9625 5.086 5.18823C5.04395 5.41395 4.9374 5.62363 4.77853 5.7933C4.02736 6.59538 3.62976 7.5772 3.62976 8.73264C3.62976 12.611 5.3548 14.0269 9.06785 14.4304C10.1562 14.5502 10.5803 15.8707 9.75359 16.5689C9.51075 16.773 9.21255 17.4639 9.21255 18.2366V22.0868C9.21255 23.2924 8.16318 24.1972 6.74641 23.9563C6.45855 23.908 6.19698 23.7638 6.00657 23.5485C5.81615 23.3332 5.70876 23.0603 5.70281 22.7764C5.69686 22.4926 5.79272 22.2156 5.97395 21.993C6.15518 21.7703 6.41049 21.6159 6.69608 21.5562V20.3457C5.55108 20.4215 4.60615 20.2394 3.86002 19.754Z" fill="black"/>
</svg>
