<svg width="24" height="23" viewBox="0 0 24 23" fill="none" xmlns="http://www.w3.org/2000/svg">
<path d="M11.6571 7.95143C12.9147 6.71994 14.5522 5.91429 16.4571 5.91429C18.4576 5.91429 20.3762 6.67586 21.7907 8.03149C23.2053 9.38711 24 11.2257 24 13.1429V23H21.2571V13.1429C21.2571 11.9229 20.7514 10.7528 19.8513 9.89017C18.9511 9.0275 17.7302 8.54286 16.4571 8.54286C15.1841 8.54286 13.9632 9.0275 13.063 9.89017C12.1629 10.7528 11.6571 11.9229 11.6571 13.1429V23H8.91429V6.57143H11.6571V7.95143ZM2.05714 3.94286C1.51155 3.94286 0.988312 3.73515 0.602523 3.36544C0.216734 2.99572 0 2.49428 0 1.97143C0 1.44857 0.216734 0.947133 0.602523 0.577418C0.988312 0.207704 1.51155 0 2.05714 0C2.60273 0 3.12597 0.207704 3.51176 0.577418C3.89755 0.947133 4.11429 1.44857 4.11429 1.97143C4.11429 2.49428 3.89755 2.99572 3.51176 3.36544C3.12597 3.73515 2.60273 3.94286 2.05714 3.94286ZM0.685714 6.57143H3.42857V23H0.685714V6.57143Z" fill="black"/>
</svg>
